{"title":"Krissy Fucks with Energy and Enthusiasm Krissy Lynn Evil Anal[VP","uid":10780398,"size":376946254,"categoryP":"porn","categoryS":"other","magnet":"?xt=urn:btih:c87f3544160f8eb9f85c332e9a9396e6bb03804f&amp;dn=Krissy+Fucks+with+Energy+and+Enthusiasm+Krissy+Lynn+Evil+Anal%5BVP&amp;tr=udp%3A%2F%2Ftracker.openbittorrent.com%3A80&amp;tr=udp%3A%2F%2Fopen.demonii.com%3A1337&amp;tr=udp%3A%2F%2Ftracker.coppersurfer.tk%3A6969&amp;tr=udp%3A%2F%2Fexodus.desync.com%3A6969","seeders":0,"leechers":4,"uploader":"vpsr","files":1,"time":1408156057,"description":"Krissy Fucks with Energy and Enthusiasm Krissy Lynn Evil Anal[VPSR].mp4\n\n &lt;a href=&quot;\nhttp://s25.postimg.org/8oigoksyn/vlcsnap_2014_08_16_01h19m50s136.png&quot; rel=&quot;nofollow&quot; target=&quot;_NEW&quot;&gt;\nhttp://s25.postimg.org/8oigoksyn/vlcsnap_2014_08_16_01h19m50s136.png&lt;/a&gt;\n\n &lt;a href=&quot;\nhttp://s25.postimg.org/gsqktbfdr/Krissy_Fucks_with_Energy_and_Enthusiasm_Krissy.jpg&quot; rel=&quot;nofollow&quot; target=&quot;_NEW&quot;&gt;\nhttp://s25.postimg.org/gsqktbfdr/Krissy_Fucks_with_Energy_and_Enthusiasm_Krissy.jpg&lt;/a&gt;\n\n\nFILE INFO\n\n\nGeneral\nComplete name                            : Krissy Fucks with Energy and Enthusiasm  Krissy Lynn Evil Anal.mp4\nFormat                                   : MPEG-4\nFormat profile                           : Base Media\nCodec ID                                 : isom\nFile size                                : 359 MiB\nDuration                                 : 15mn 24s\nOverall bit rate mode                    : Constant\nOverall bit rate                         : 3 263 Kbps\nMovie name                               : KRISSY\nTrack name/Position                      : 1\nWriting application                      : Lavf55.19.104\nXtra                                     : WM/SubTitle\n\nVideo\nID                                       : 1\nFormat                                   : MPEG-4 Visual\nFormat profile                           : Simple@L1\nFormat settings, BVOP                    : No\nFormat settings, QPel                    : No\nFormat settings, GMC                     : No warppoints\nFormat settings, Matrix                  : Default (H.263)\nCodec ID                                 : 20\nDuration                                 : 15mn 24s\nBit rate mode                            : Constant\nBit rate                                 : 3 000 Kbps\nWidth                                    : 854 pixels\nHeight                                   : 480 pixels\nDisplay aspect ratio                     : 16:9\nOriginal display aspect ratio            : 16:9\nFrame rate mode                          : Constant\nFrame rate                               : 30.000 fps\nColor space                              : YUV\nChroma subsampling                       : 4:2:0\nBit depth                                : 8 bits\nScan type                                : Progressive\nCompression mode                         : Lossy\nBits/(Pixel*Frame)                       : 0.244\nStream size                              : 331 MiB (92%)\nWriting library                          : Lavc55.39.100\nLanguage                                 : English\n\nAudio\nID                                       : 2\nFormat                                   : AAC\nFormat/Info                              : Advanced Audio Codec\nFormat profile                           : LC\nCodec ID                                 : 40\nDuration                                 : 15mn 24s\nDuration_LastFrame                       : -9ms\nBit rate mode                            : Constant\nBit rate                                 : 256 Kbps\nChannel(s)                               : 2 channels\nChannel positions                        : Front: L R\nSampling rate                            : 48.0 KHz\nCompression mode                         : Lossy\nStream size                              : 28.2 MiB (8%)\nLanguage                                 : English\n\n","torrent":{"xt":"urn:btih:c87f3544160f8eb9f85c332e9a9396e6bb03804f","amp;dn":"Krissy+Fucks+with+Energy+and+Enthusiasm+Krissy+Lynn+Evil+Anal%5BVP","amp;tr":["udp%3A%2F%2Ftracker.openbittorrent.com%3A80","udp%3A%2F%2Fopen.demonii.com%3A1337","udp%3A%2F%2Ftracker.coppersurfer.tk%3A6969","udp%3A%2F%2Fexodus.desync.com%3A6969"],"infoHash":"c87f3544160f8eb9f85c332e9a9396e6bb03804f","infoHashBuffer":{"type":"Buffer","data":[200,127,53,68,22,15,142,185,248,92,51,46,154,147,150,230,187,3,128,79]},"announce":[],"urlList":[]}}